<svg width="500" height="500" viewBox="0 0 500 500" fill="none" xmlns="http://www.w3.org/2000/svg">
<rect width="500" height="500" rx="50" fill="black"/>
<path d="M186.676 127.986C186.676 131.893 188.67 135.107 192.657 137.63C196.645 135.026 198.639 131.811 198.639 127.986C198.639 126.196 198.11 124.69 197.052 123.47C195.994 122.249 194.529 121.639 192.657 121.639C190.785 121.639 189.321 122.249 188.263 123.47C187.205 124.69 186.676 126.196 186.676 127.986ZM132.721 124.935C132.721 109.554 138.377 97.5908 149.688 89.0459C161 80.4196 175.283 76.1064 192.535 76.1064C209.788 76.1064 224.192 80.8265 235.748 90.2666C248.118 100.521 254.303 113.948 254.303 130.55C254.303 145.605 248.036 158.3 235.504 168.636C224.843 177.425 211.171 183.488 194.488 186.824C194.488 189.835 195.831 191.341 198.517 191.341C203.155 191.341 209.869 189.51 218.658 185.848L225.494 192.684C232.656 199.845 236.236 207.698 236.236 216.243C236.236 224.788 233.429 231.99 227.813 237.85C222.198 243.628 214.793 246.517 205.597 246.517C202.667 246.517 199.208 246.11 195.221 245.296C191.233 244.482 188.059 243.383 185.699 242C185.862 240.861 185.943 240.088 185.943 239.681C185.943 236.588 184.885 233.618 182.77 230.77C180.735 227.84 177.521 224.585 173.126 221.004C168.813 217.423 163.767 213.517 157.989 209.285C152.211 204.972 145.782 199.926 138.702 194.148C137.4 190.242 136.749 185.766 136.749 180.721C136.749 175.675 137.4 171.484 138.702 168.147C145.457 165.706 151.275 163.102 156.158 160.335C148.915 157.08 143.137 152.034 138.824 145.198C134.755 138.932 132.721 132.177 132.721 124.935ZM258.087 169.734C258.087 164.282 259.063 159.074 261.017 154.109C262.97 149.145 265.045 145.809 267.242 144.1C271.067 146.948 274.973 149.104 278.961 150.569C283.03 151.953 287.953 152.645 293.731 152.645C302.927 152.645 310.903 150.162 317.657 145.198C320.18 143.326 322.174 141.333 323.639 139.217C325.185 137.02 325.958 135.148 325.958 133.602C325.958 131.974 325.226 130.835 323.761 130.184C323.028 129.939 322.54 129.817 322.296 129.817C320.261 134.619 316.762 138.729 311.798 142.146C306.834 145.483 300.567 147.151 292.999 147.151C283.722 147.151 275.624 144.059 268.707 137.874C261.057 131.201 257.232 122.493 257.232 111.751V108.699C257.232 107.804 257.314 106.543 257.477 104.915C257.639 103.287 257.761 101.904 257.843 100.765C271.433 84.8141 290.842 76.8389 316.07 76.8389C336.09 76.8389 352.162 82.5355 364.288 93.9287C376.495 105.322 382.599 119.726 382.599 137.142C382.599 154.557 376.902 168.351 365.509 178.523C354.116 188.615 339.63 194.23 322.052 195.369C322.215 196.997 322.743 198.177 323.639 198.909C324.615 199.642 326.284 200.008 328.644 200.008C335.398 200.008 342.641 198.299 350.372 194.881C352.244 197.485 354.807 199.357 358.062 200.496C359.771 201.066 362.457 201.635 366.119 202.205C367.584 206.925 368.316 211.442 368.316 215.755C368.316 223.405 365.794 229.915 360.748 235.286C354.726 241.878 345.855 245.174 334.137 245.174C320.872 245.174 310.007 241.064 301.544 232.845C294.382 226.009 288.32 215.592 283.355 201.595C278.229 200.781 273.59 199.316 269.439 197.2C266.266 194.433 263.58 190.527 261.383 185.481C259.186 180.354 258.087 175.105 258.087 169.734Z" fill="white"/>
<path d="M179.89 364.463C179.89 367.962 181.843 369.712 185.749 369.712C189.655 369.712 191.608 367.962 191.608 364.463C191.608 361.696 189.696 359.132 185.871 356.772C181.883 359.132 179.89 361.696 179.89 364.463ZM252.033 365.562C252.033 382.163 245.808 394.858 233.356 403.647C221.963 411.704 206.786 415.732 187.824 415.732C168.944 415.732 153.848 411.501 142.536 403.037C130.248 393.923 124.104 381.309 124.104 365.195C124.104 354.616 126.911 345.745 132.526 338.584C138.223 331.423 145.832 326.906 155.354 325.034C155.354 321.779 154.255 320.151 152.058 320.151C149.942 320.151 147.5 320.64 144.733 321.616C141.966 322.511 139.566 323.651 137.531 325.034C122.883 316.815 115.559 304.893 115.559 289.268C115.559 277.549 119.506 268.475 127.399 262.046C134.479 256.268 143.716 253.379 155.109 253.379C163.492 253.379 170.287 254.762 175.495 257.529C180.703 260.215 184.976 264.162 188.312 269.37C187.01 272.544 186.115 275.107 185.627 277.061C185.22 279.014 185.017 281.903 185.017 285.728C185.017 289.552 186.441 293.459 189.289 297.446C191.405 296.47 193.236 294.15 194.782 290.488C196.328 286.745 197.102 283.164 197.102 279.746C197.102 276.328 196.573 273.114 195.515 270.103C194.538 267.091 193.399 264.609 192.097 262.656C195.189 260.215 199.177 258.018 204.06 256.064C209.024 254.111 214.558 253.135 220.661 253.135C232.624 253.135 242.227 256.675 249.47 263.755C255.899 270.347 259.113 278.77 259.113 289.023C259.113 299.277 255.614 308.392 248.615 316.367C241.291 324.912 231.363 330.365 218.83 332.725C218.83 335.98 220.091 337.607 222.614 337.607C224.079 337.607 226.276 337.078 229.206 336.021C232.136 335.125 234.577 334.108 236.53 332.969C240.518 335.085 244.099 339.479 247.272 346.152C250.446 352.826 252.033 359.295 252.033 365.562ZM326.13 340.049C327.188 340.049 328.124 339.642 328.938 338.828C325.601 333.457 323.933 326.825 323.933 318.931C323.933 310.955 326.944 303.835 332.966 297.568C338.988 291.302 346.882 288.169 356.647 288.169C368.041 288.169 377.44 291.668 384.846 298.667C392.251 305.666 395.954 315.391 395.954 327.842C395.954 337.038 393.553 345.42 388.752 352.988C384.032 360.475 377.318 366.538 368.61 371.177C374.226 379.152 377.033 387.493 377.033 396.201C377.033 406.781 373.452 414.919 366.291 420.615C359.862 425.824 351.683 428.428 341.755 428.428C331.908 428.428 323.526 425.701 316.608 420.249C309.04 414.471 304.808 406.781 303.913 397.178C308.715 393.597 312.743 389.284 315.998 384.238C317.056 384.564 319.213 384.889 322.468 385.215C325.804 385.54 329.06 385.703 332.233 385.703C335.407 385.703 337.686 385.378 339.069 384.727C340.534 383.994 341.267 382.896 341.267 381.431C341.267 381.349 341.185 380.739 341.022 379.6C336.791 380.007 332.966 380.21 329.548 380.21C317.666 380.21 306.436 377.769 295.856 372.886C285.358 368.003 276.813 360.719 270.222 351.035C263.63 341.27 260.334 329.551 260.334 315.879C260.334 300.498 265.013 286.338 274.372 273.398C282.673 261.924 292.601 253.989 304.157 249.595C304.564 249.513 305.256 249.473 306.232 249.473H308.186C317.137 249.473 325.967 251.426 334.675 255.332C343.382 259.157 349.73 264.121 353.718 270.225L348.591 282.065C338.825 284.344 331.216 289.023 325.764 296.104C320.474 303.184 317.829 311.037 317.829 319.663C317.829 324.709 318.724 329.347 320.515 333.579C322.142 337.892 324.014 340.049 326.13 340.049Z" fill="white"/>
</svg>
