<svg width="21" height="21" viewBox="0 0 21 21" fill="none" xmlns="http://www.w3.org/2000/svg">
<path d="M18 12.6684V14.5C18 16.7105 16.2105 18.5 14 18.5H6C3.78947 18.5 2 16.7105 2 14.5V6.52105C2 4.31053 3.78947 2.52105 6 2.52105H7.81053C7.74737 2.18421 7.68421 1.86842 7.68421 1.51053C7.68421 1.15263 7.72631 0.836842 7.81053 0.5H6C2.69474 0.5 0 3.19474 0 6.52105V14.5C0 17.8263 2.69474 20.5 6 20.5H13.9789C17.3053 20.5 19.9789 17.8053 19.9789 14.5V12.6895C19.6842 12.7526 19.3474 12.8158 18.9895 12.8158C18.6316 12.8158 18.3158 12.7526 18 12.6684Z" fill="black"/>
<path d="M18.9895 0.5H11.4527C10.9053 0.5 10.4421 0.942105 10.4421 1.51053C10.4421 2.07895 10.8842 2.52105 11.4527 2.52105H16.5684L6.33687 12.7316C5.93687 13.1316 5.93687 13.7632 6.33687 14.1421C6.52634 14.3316 6.77897 14.4368 7.05266 14.4368C7.30529 14.4368 7.55792 14.3316 7.76844 14.1421L18 3.91053V9.02632C18 9.57368 18.4421 10.0368 19.0106 10.0368C19.579 10.0368 20.0211 9.59474 20.0211 9.02632V1.51053C20 0.942105 19.5579 0.5 18.9895 0.5Z" fill="black"/>
</svg>
