<svg width="24" height="24" viewBox="0 0 24 24" fill="none" xmlns="http://www.w3.org/2000/svg">
<g clip-path="url(#clip0_913_2)">
<rect width="24" height="24" rx="5" fill="black"/>
<path d="M8.5 19.5V19V8V7.5H8H5H4.5V8V19V19.5H5H8H8.5ZM20 19.5H20.5V19V12.241C20.5 10.8374 20.1243 9.74701 19.4922 8.96101C18.8604 8.17548 18.0036 7.73291 17.1127 7.57139C15.861 7.34448 14.482 7.66786 13.5 8.4322V8V7.5H13H10H9.5V8V19V19.5H10H13H13.5V19V13.396C13.5 12.0836 14.3108 11.4878 15.0159 11.4654C15.3788 11.4538 15.7377 11.5878 16.0098 11.8788C16.2814 12.1693 16.5 12.6538 16.5 13.396V19V19.5H17H20ZM5 0.5H19C21.4858 0.5 23.5 2.51508 23.5 5V19C23.5 21.4849 21.4858 23.5 19 23.5H5C2.51514 23.5 0.5 21.4849 0.5 19V5C0.5 2.51514 2.51514 0.5 5 0.5ZM4.25 4.968C4.25 6.21443 5.25416 7.232 6.5 7.232C7.74703 7.232 8.75 6.21424 8.75 4.968C8.75 3.72157 7.74584 2.704 6.5 2.704C5.25416 2.704 4.25 3.72157 4.25 4.968Z" fill="white" stroke="white"/>
</g>
<defs>
<clipPath id="clip0_913_2">
<rect width="24" height="24" rx="5" fill="white"/>
</clipPath>
</defs>
</svg>
