<svg width="13" height="13" viewBox="0 0 13 13" fill="none" xmlns="http://www.w3.org/2000/svg">
<path d="M10.8 7.80105V8.9C10.8 10.2263 9.72632 11.3 8.4 11.3H3.6C2.27368 11.3 1.2 10.2263 1.2 8.9V4.11263C1.2 2.78632 2.27368 1.71263 3.6 1.71263H4.68632C4.64842 1.51053 4.61053 1.32105 4.61053 1.10632C4.61053 0.891579 4.63579 0.702105 4.68632 0.5H3.6C1.61684 0.5 0 2.11684 0 4.11263V8.9C0 10.8958 1.61684 12.5 3.6 12.5H8.38737C10.3832 12.5 11.9874 10.8832 11.9874 8.9V7.81368C11.8105 7.85158 11.6084 7.88947 11.3937 7.88947C11.1789 7.88947 10.9895 7.85158 10.8 7.80105Z" fill="black"/>
<path d="M11.3937 0.5H6.87158C6.54316 0.5 6.26527 0.765263 6.26527 1.10632C6.26527 1.44737 6.53053 1.71263 6.87158 1.71263H9.94106L3.80211 7.83895C3.56211 8.07895 3.56211 8.45789 3.80211 8.68526C3.91579 8.79895 4.06737 8.8621 4.23158 8.8621C4.38316 8.8621 4.53474 8.79895 4.66106 8.68526L10.8 2.54632V5.61579C10.8 5.94421 11.0653 6.22211 11.4063 6.22211C11.7474 6.22211 12.0126 5.95684 12.0126 5.61579V1.10632C12 0.765263 11.7347 0.5 11.3937 0.5Z" fill="black"/>
</svg>
