<svg width="100" height="100" viewBox="0 0 100 100" fill="none" xmlns="http://www.w3.org/2000/svg">
<rect width="100" height="100" fill="white"/>
<path d="M16 23.6C16 19.9549 19.0445 17 22.8 17H36.4C40.1555 17 43.2 19.9549 43.2 23.6C43.2 23.6 43.2 31.85 43.2 36.8C43.2 41.75 56.8 41.75 56.8 36.8C56.8 31.85 56.8 23.6 56.8 23.6C56.8 19.9549 59.8445 17 63.6 17H77.2C80.9555 17 84 19.9549 84 23.6V36.8C84 40.4451 80.9555 43.4 77.2 43.4C77.2 43.4 67 43.4 63.6 43.4C60.2 43.4 58.5 56.6 63.6 56.6C68.7 56.6 77.2 56.6 77.2 56.6C80.9555 56.6 84 59.5549 84 63.2V76.4C84 80.0451 80.9555 83 77.2 83H63.6C59.8445 83 56.8 80.0451 56.8 76.4C56.8 76.4 56.8 68.15 56.8 63.2C56.8 58.25 43.2 58.25 43.2 63.2C43.2 68.15 43.2 76.4 43.2 76.4C43.2 80.0451 40.1555 83 36.4 83H22.8C19.0445 83 16 80.0451 16 76.4V63.2C16 59.5549 19.0445 56.6 22.8 56.6C22.8 56.6 31.3 56.6 36.4 56.6C41.5 56.6 41.5 43.4 36.4 43.4C31.3 43.4 22.8 43.4 22.8 43.4C19.0445 43.4 16 40.4451 16 36.8V23.6Z" fill="black"/>
</svg>
