<svg width="13" height="13" viewBox="0 0 13 13" fill="none" xmlns="http://www.w3.org/2000/svg">
<path d="M11.7874 7.80105V8.9C11.7874 10.2263 10.7137 11.3 9.38737 11.3H4.58737C3.26105 11.3 2.18737 10.2263 2.18737 8.9V4.11263C2.18737 2.78632 3.26105 1.71263 4.58737 1.71263H5.67368C5.63579 1.51053 5.59789 1.32105 5.59789 1.10632C5.59789 0.891579 5.62315 0.702105 5.67368 0.5H4.58737C2.60421 0.5 0.987366 2.11684 0.987366 4.11263V8.9C0.987366 10.8958 2.60421 12.5 4.58737 12.5H9.37473C11.3705 12.5 12.9747 10.8832 12.9747 8.9V7.81368C12.7979 7.85158 12.5958 7.88947 12.381 7.88947C12.1663 7.88947 11.9768 7.85158 11.7874 7.80105Z" fill="#FF0000"/>
<path d="M12.381 0.5H7.85894C7.53052 0.5 7.25262 0.765263 7.25262 1.10632C7.25262 1.44737 7.51789 1.71263 7.85894 1.71263H10.9284L4.78947 7.83895C4.54947 8.07895 4.54947 8.45789 4.78947 8.68526C4.90315 8.79895 5.05473 8.8621 5.21894 8.8621C5.37052 8.8621 5.5221 8.79895 5.64841 8.68526L11.7874 2.54632V5.61579C11.7874 5.94421 12.0526 6.22211 12.3937 6.22211C12.7347 6.22211 13 5.95684 13 5.61579V1.10632C12.9874 0.765263 12.7221 0.5 12.381 0.5Z" fill="#FF0000"/>
</svg>
